<svg width="19" height="19" viewBox="0 0 19 19" fill="none" xmlns="http://www.w3.org/2000/svg">
<g clip-path="url(#clip0_793_7)">
<path d="M12.6745 11.4333C14.3639 11.4035 14.7357 9.07938 13.1415 8.52588L11.3008 10.5222C11.5305 11.063 12.072 11.4333 12.6745 11.4333Z" fill="white"/>
<path d="M18.1262 8.41727C17.8896 6.99749 17.2244 5.90165 16.1916 5.2174C15.7105 5.73955 14.3851 7.17644 13.8849 7.71916C14.6897 8.15535 15.2049 9 15.2049 9.94236C15.2105 12.1265 12.5749 13.2864 10.9688 11.8115C10.8156 12.1503 10.6008 12.4621 10.3303 12.7327C9.2578 13.8954 5.93582 14.1765 4.51777 14.1352C4.47634 12.7136 4.75856 9.3932 5.92026 8.32268C6.51301 7.73025 7.2863 7.4264 8.06478 7.41151C8.91672 6.62329 10.0981 5.53005 10.9466 4.74484C9.76806 5.0554 8.04182 5.87761 7.51531 5.10134C7.26891 4.51982 8.3891 3.16854 7.50526 2.03452C6.78093 1.12504 5.15983 1.29588 4.24373 1.94202C-0.216679 5.02162 -0.813102 11.7878 3.08078 15.5518C7.84759 20.3553 16.1629 18.1791 17.9897 11.6698C18.0889 11.2601 18.3728 9.91707 18.1262 8.41727V8.41727Z" fill="white"/>
<path d="M10.3303 8.32266C10.6199 8.6123 10.8455 8.94871 11 9.31491C11.59 8.67594 14.705 5.2963 15.2222 4.73581L17.988 1.7362C18.2901 1.40845 18.2981 0.923411 18.0064 0.631349C17.7139 0.339287 17.2282 0.347602 16.9005 0.65075L12.8556 4.3942C11.9773 5.20674 10.2304 6.824 9.33423 7.65331C9.69662 7.80506 10.0358 8.02817 10.3303 8.32266V8.32266Z" fill="white"/>
<path d="M9.04051 8.66053C8.25139 8.27652 7.29511 8.41916 6.65517 9.05688C5.9942 9.64128 5.61892 11.8654 5.58081 13.0716C6.79056 13.0323 9.00926 12.6592 9.59519 11.9972C9.98807 11.6044 10.2043 11.0823 10.2043 10.5272C10.2042 9.97145 9.98772 9.44931 9.59519 9.05723V9.05688C9.42889 8.89023 9.24111 8.75824 9.04051 8.66053V8.66053Z" fill="white"/>
</g>
<defs>
<clipPath id="clip0_793_7">
<rect width="17.7335" height="17.7335" fill="white" transform="translate(0.49292 0.417725)"/>
</clipPath>
</defs>
</svg>
